<svg width="40" height="40" viewBox="0 0 40 40" fill="none" xmlns="http://www.w3.org/2000/svg">
<path d="M20 0C8.95536 0 0 8.95536 0 20C0 31.0446 8.95536 40 20 40C31.0446 40 40 31.0446 40 20C40 8.95536 31.0446 0 20 0ZM18.5714 10.3571C18.5714 10.1607 18.7321 10 18.9286 10H21.0714C21.2679 10 21.4286 10.1607 21.4286 10.3571V22.5C21.4286 22.6964 21.2679 22.8571 21.0714 22.8571H18.9286C18.7321 22.8571 18.5714 22.6964 18.5714 22.5V10.3571ZM20 30C19.4393 29.9886 18.9053 29.7578 18.5128 29.3571C18.1203 28.9565 17.9004 28.418 17.9004 27.8571C17.9004 27.2963 18.1203 26.7578 18.5128 26.3571C18.9053 25.9565 19.4393 25.7257 20 25.7143C20.5607 25.7257 21.0947 25.9565 21.4872 26.3571C21.8797 26.7578 22.0996 27.2963 22.0996 27.8571C22.0996 28.418 21.8797 28.9565 21.4872 29.3571C21.0947 29.7578 20.5607 29.9886 20 30Z" fill="white"/>
</svg>
